<?xml version="1.0" standalone="no"?>
<!DOCTYPE svg PUBLIC "-//W3C//DTD SVG 20010904//EN"
 "http://www.w3.org/TR/2001/REC-SVG-20010904/DTD/svg10.dtd">
<svg version="1.0" xmlns="http://www.w3.org/2000/svg"
 width="215.000000pt" height="50.000000pt" viewBox="0 0 215.000000 50.000000"
 preserveAspectRatio="xMidYMid meet">

<g transform="translate(0.000000,50.000000) scale(0.100000,-0.100000)"
fill="#000000" stroke="none">
<path d="M253 463 c107 -3 117 -5 117 -22 0 -30 11 -51 26 -51 11 0 14 -20 14
-92 0 -105 -16 -145 -69 -173 -43 -22 -69 -19 -74 8 l-4 22 -2 -22 c-1 -17 -7
-23 -26 -23 -13 0 -39 -6 -57 -14 -18 -8 -49 -19 -68 -24 l-35 -9 37 -17 c50
-22 262 -23 314 -1 52 21 64 60 64 205 0 205 -17 221 -227 218 l-128 -2 118
-3z"/>
<path d="M1320 270 l0 -170 30 0 30 0 0 100 0 100 45 0 c57 0 65 -15 65 -119
0 -80 0 -81 25 -81 l25 0 0 100 c0 94 -2 103 -25 125 -20 21 -34 25 -80 25
l-55 0 0 45 c0 43 -1 45 -30 45 l-30 0 0 -170z"/>
<path d="M2037 400 c3 -11 7 -20 8 -20 1 0 5 9 8 20 3 12 0 20 -8 20 -8 0 -11
-8 -8 -20z"/>
<path d="M2100 409 c0 -6 -7 -9 -15 -5 -9 3 -15 0 -15 -10 0 -10 6 -14 14 -11
8 3 17 1 20 -6 2 -7 5 0 5 16 1 15 -1 27 -4 27 -3 0 -5 -5 -5 -11z"/>
<path d="M570 245 l0 -145 65 0 c129 0 170 41 163 163 -3 63 -7 72 -36 98 -30
27 -38 29 -112 29 l-80 0 0 -145z m150 75 c15 -15 20 -33 20 -69 0 -63 -21
-90 -78 -98 l-42 -6 0 97 0 96 40 0 c27 0 47 -7 60 -20z"/>
<path d="M54 250 c0 -69 1 -97 3 -63 2 35 2 91 0 125 -2 35 -3 7 -3 -62z"/>
<path d="M840 325 c0 -24 2 -25 68 -25 63 0 92 -10 92 -32 0 -4 -28 -8 -63 -8
-83 0 -107 -16 -107 -74 0 -72 13 -80 130 -84 l102 -4 -4 102 c-3 97 -4 103
-31 126 -25 21 -38 24 -108 24 -78 0 -79 0 -79 -25z m160 -145 c0 -29 -1 -30
-49 -30 -52 0 -76 16 -65 44 5 12 19 16 60 16 53 0 54 0 54 -30z"/>
<path d="M1119 321 c-25 -26 -29 -37 -29 -86 0 -101 36 -135 146 -135 51 0 54
1 54 25 0 23 -3 25 -52 25 -29 0 -58 4 -64 8 -22 14 -36 55 -30 85 10 48 23
57 87 57 56 0 59 1 59 25 0 24 -2 25 -71 25 -65 0 -73 -2 -100 -29z"/>
<path d="M1609 321 c-28 -28 -29 -33 -29 -125 l0 -96 30 0 30 0 0 88 c0 94 8
112 47 112 18 0 23 -6 23 -25 0 -21 5 -25 30 -25 29 0 30 1 30 50 l0 50 -66 0
c-59 0 -68 -3 -95 -29z"/>
<path d="M1825 336 c-14 -10 -20 -26 -20 -55 0 -58 21 -74 100 -79 61 -4 66
-6 63 -26 -3 -19 -10 -21 -80 -24 -75 -3 -78 -4 -78 -27 0 -25 1 -25 84 -25
104 0 131 16 131 79 0 22 -6 46 -13 53 -7 7 -43 15 -80 18 -60 4 -67 7 -70 28
-3 21 -1 22 77 22 80 0 81 0 81 25 0 25 -1 25 -88 25 -60 0 -94 -5 -107 -14z"/>
<path d="M260 250 c0 -5 5 -10 10 -10 6 0 10 5 10 10 0 6 -4 10 -10 10 -5 0
-10 -4 -10 -10z"/>
<path d="M327 217 l-17 -32 20 24 c17 20 26 41 18 41 -2 0 -11 -15 -21 -33z"/>
</g>
</svg>
