<?xml version="1.0" encoding="utf-8"?>
<!-- Generator: Adobe Illustrator 24.3.0, SVG Export Plug-In . SVG Version: 6.00 Build 0)  -->
<svg version="1.1" xmlns="http://www.w3.org/2000/svg" xmlns:xlink="http://www.w3.org/1999/xlink" x="0px" y="0px"
	 viewBox="0 0 1366 768" style="enable-background:new 0 0 1366 768;" xml:space="preserve">
<style type="text/css">
	.st0{fill:#FFFFFF;}
	.st1{fill:#1500BF;}
	.st2{font-family:'Calibri';}
	.st3{font-size:48px;}
	.st4{fill:#EDC314;}
	.st5{fill:#16A316;}
	.st6{fill:#CDD9FF;}
	.st7{fill:#F3F7FF;}
	.st8{fill:#4351A3;}
	.st9{fill:url(#Rectangle_3-4_2_);}
	.st10{fill:#FF6382;}
	.st11{fill:#FEC40C;}
	.st12{fill:#10C392;}
	.st13{fill:#A8B7E6;}
	.st14{fill:#E6EEFC;}
	.st15{fill:url(#Rectangle_11-2_2_);}
	.st16{fill:url(#Path_32_2_);}
	.st17{fill:#FFB677;}
	.st18{fill:url(#Path_35_2_);}
	.st19{fill:url(#Path_37_2_);}
	.st20{fill:url(#Path_45_2_);}
	.st21{fill:url(#Path_46_2_);}
	.st22{fill:#FF8364;}
	.st23{fill:url(#Path_42_2_);}
	.st24{fill:url(#Path_38_2_);}
	.st25{fill:url(#Path_39_2_);}
	.st26{fill:url(#Path_40_2_);}
	.st27{fill:url(#Path_41_2_);}
	.st28{fill:#FFD6A0;}
	.st29{fill:url(#Path_50_2_);}
	.st30{fill:url(#Path_51_2_);}
	.st31{fill:url(#Path_62_2_);}
	.st32{fill:url(#Path_63_2_);}
	.st33{fill:#FFA06F;}
	.st34{fill:url(#Path_60_2_);}
	.st35{fill:#2437A3;}
	.st36{fill:url(#Path_47_2_);}
	.st37{fill:url(#Path_56_2_);}
	.st38{fill:url(#Path_57_2_);}
	.st39{fill:url(#Path_58_2_);}
	.st40{fill:url(#Path_59_2_);}
	.st41{fill:url(#Path_66_2_);}
</style>
<g id="Background">
	<rect class="st0" width="1366" height="768"/>
</g>
<g id="Form_Login_1_">
	<text transform="matrix(1 0 0 1 868.684 73.564)" class="st1 st2 st3">Business Login</text>
</g>
<g id="Object">
	<path class="st4" d="M1308.3,657H591.3c-17.8,0-32.2-14.4-32.2-32.2V130.5c0-17.8,14.4-32.2,32.2-32.2h716.9
		c17.8,0,32.2,14.4,32.2,32.2v494.3C1340.4,642.6,1326,657,1308.3,657z"/>
	<circle class="st5" cx="1238.9" cy="285.6" r="37.2"/>
	<g>
		<g id="Decor" transform="translate(275.688 107.667)">
			<g id="Group_21_1_">
				<path id="Path_1_1_" class="st6" d="M542.3,68.7h-0.4c-1.9,0-3.4-1.5-3.5-3.4v0l0,0c0-1.9,1.5-3.4,3.4-3.4h0h7.4
					c1.9,0,3.4-1.5,3.4-3.4l0,0l0,0c0-1.9-1.5-3.4-3.4-3.4l0,0h-34.2c-1.9,0-3.4,1.5-3.4,3.4l0,0l0,0c0,1.9,1.5,3.4,3.4,3.4l0,0h2.7
					c1.9,0,3.4,1.5,3.4,3.4l0,0l0,0c0,1.9-1.5,3.4-3.4,3.4l0,0h-16.3c-1.9,0-3.4,1.5-3.4,3.4l0,0l0,0c0,1.9,1.5,3.4,3.4,3.4l0,0
					h40.8c1.9,0,3.4-1.5,3.4-3.4l0,0l0,0C545.8,70.2,544.2,68.7,542.3,68.7L542.3,68.7z"/>
				<path id="Path_2_1_" class="st6" d="M939.2,86.9h-0.5c-2.8,0-5-2.2-5-5l0,0c0-2.8,2.2-5,5-5h0h10.7c2.8,0,5-2.2,5-5l0,0
					c0-2.8-2.2-5-5-5h0H900c-2.8,0-5,2.2-5,5l0,0c0,2.8,2.2,5,5,5h3.9c2.8,0,5,2.2,5,5v0l0,0c0,2.8-2.2,5-5,5h-23.6
					c-2.8,0-5,2.2-5,5l0,0c0,2.8,2.2,5,5,5h59c2.8,0,5-2.2,5-5v0l0,0C944.2,89.1,942,86.9,939.2,86.9
					C939.2,86.9,939.2,86.9,939.2,86.9z"/>
				<g id="Group_4_1_" transform="translate(227.54)">
					<g id="Group_1_1_" transform="translate(54.03)">
						<path id="Path_3_1_" class="st6" d="M418.4,69.7c0,9.3,7.5,16.8,16.8,16.8c9.3,0,16.8-7.5,16.8-16.8s-7.5-16.8-16.8-16.8l0,0
							C426,52.8,418.4,60.3,418.4,69.7C418.4,69.6,418.4,69.6,418.4,69.7z"/>
						<path id="Path_4_1_" class="st6" d="M392.5,141.9c24.2,22,61.2,22,85.4,0c-5.6-26-22.6-44.9-42.7-44.9
							C415.2,97.1,398.1,115.9,392.5,141.9z"/>
					</g>
					<g id="Group_2_1_" transform="translate(0 38.807)">
						<path id="Path_5_1_" class="st6" d="M408.9,63.5c0,5.9,4.8,10.7,10.6,10.7c5.9,0,10.7-4.8,10.7-10.6c0-5.9-4.8-10.7-10.6-10.7
							c0,0,0,0,0,0C413.7,52.8,408.9,57.6,408.9,63.5C408.9,63.5,408.9,63.5,408.9,63.5z"/>
						<path id="Path_6_1_" class="st6" d="M392.5,109.2c15.3,13.9,38.7,13.9,54,0c-3.6-16.4-14.3-28.4-27-28.4
							C406.8,80.8,396.1,92.7,392.5,109.2z"/>
					</g>
					<g id="Group_3_1_" transform="translate(139.461 38.807)">
						<path id="Path_7_1_" class="st6" d="M408.9,63.5c0,5.9,4.8,10.7,10.6,10.7c5.9,0,10.7-4.8,10.7-10.6c0-5.9-4.8-10.7-10.6-10.7
							l0,0C413.7,52.8,408.9,57.6,408.9,63.5C408.9,63.5,408.9,63.5,408.9,63.5z"/>
						<path id="Path_8_1_" class="st6" d="M392.5,109.2c15.3,13.9,38.7,13.9,54,0c-3.6-16.4-14.3-28.4-27-28.4
							C406.8,80.8,396.1,92.7,392.5,109.2z"/>
					</g>
				</g>
				<path id="Path_9_1_" class="st6" d="M971.3,133.5c-23.6-6.2-47.8,8-54,31.6c-6.2,23.6,8,47.8,31.6,54c23.6,6.2,47.8-8,54-31.6
					C1009.1,163.8,995,139.6,971.3,133.5L971.3,133.5z M985.6,171.9l-34,19.9c-2.2,1.3-5,0.5-6.3-1.6c0,0,0,0,0,0l-9.1-15.5
					c-1.3-2.2-0.6-5,1.6-6.3c2.2-1.3,5-0.6,6.3,1.6c0,0,0,0.1,0.1,0.1l6.8,11.5l30-17.6c2.2-1.3,5-0.5,6.3,1.7
					C988.4,167.8,987.7,170.6,985.6,171.9L985.6,171.9z"/>
				<path id="Path_10_1_" class="st6" d="M405.2,189.5l16.7,33.7c8,16.2,27.7,22.9,43.9,14.8l44.9-22.3c16.2-8,22.9-27.7,14.8-43.9
					l-16.7-33.7c-5.2-10.3-15.4-17.2-26.9-18l-10.3-20.7c-10.1-20.7-35.1-29.4-55.8-19.2c-20.7,10.1-29.4,35.1-19.2,55.8
					c0.1,0.2,0.2,0.3,0.2,0.5l10.3,20.7C400.8,166.8,400.1,179.1,405.2,189.5z M447.9,181.7c-4-8-0.8-17.7,7.2-21.7
					c8-4,17.7-0.8,21.7,7.2c3.1,6.2,1.9,13.8-3.1,18.7l4.2,8.4c1.3,2.5,0.4,5.6-2.1,6.9c-2.5,1.3-5.6,0.4-6.9-2.1
					c0-0.1-0.1-0.2-0.1-0.3l-4.2-8.4C457.7,191.5,451,187.9,447.9,181.7L447.9,181.7z M420,145.5c-2.6,1.3-5,3-7.2,5l-8.8-17.7
					c-8.3-16.7-1.5-36.9,15.2-45.2c16.7-8.3,36.9-1.5,45.2,15.2l8.8,17.7c-2.9,0.5-5.7,1.4-8.3,2.7L420,145.5z"/>
				<g id="Group_13_1_" transform="translate(558.367 233.705)">
					<g id="Group_5_1_" transform="translate(0 20.67)">
						<path id="Path_11_1_" class="st6" d="M397.7,179.6h-5.1c10.3-10.9,19.3-22.9,26.9-35.8c11.5-19.5,28-51,31-90.9l1.6,0.1
							c-2.7,32.8-12.8,64.5-29.5,92.8C409.9,167.3,398.2,179.1,397.7,179.6z"/>
					</g>
					<g id="Group_12_1_" transform="translate(18.092)">
						<path id="Path_12_1_" class="st6" d="M432.4,73.5c0,0-8.8-6.3,1.6-20.7c0,0,8.4,12.1,0,20.8L432.4,73.5z"/>
						<g id="Group_6_1_" transform="translate(26.097 20.67)">
							<path id="Path_13_1_" class="st6" d="M406,68.6c0,0-10.7,1.8-13.5-15.8C392.5,52.8,405.8,56.5,406,68.6z"/>
							<path id="Path_14_1_" class="st6" d="M406,68.6c0,0,10.7,1.8,13.5-15.8C419.5,52.8,406.2,56.5,406,68.6z"/>
						</g>
						<g id="Group_7_1_" transform="translate(24.077 36.035)">
							<path id="Path_15_1_" class="st6" d="M403.8,70.2c0,0-10.9,0.4-11.3-17.4C392.5,52.8,405.3,58.2,403.8,70.2z"/>
							<path id="Path_16_1_" class="st6" d="M403.8,70.2c0,0,10.4,3.2,15.4-13.9C419.3,56.4,405.6,58.3,403.8,70.2z"/>
						</g>
						<g id="Group_8_1_" transform="translate(20.488 51.143)">
							<path id="Path_17_1_" class="st6" d="M403.8,70.2c0,0-10.9,0.4-11.3-17.4C392.5,52.8,405.3,58.2,403.8,70.2z"/>
							<path id="Path_18_1_" class="st6" d="M403.8,70.2c0,0,10.4,3.2,15.4-13.9C419.3,56.4,405.6,58.3,403.8,70.2z"/>
						</g>
						<g id="Group_9_1_" transform="translate(16.741 65.504)">
							<path id="Path_19_1_" class="st6" d="M400.9,72c0,0-10.7-1.7-7.8-19.2C393,52.8,404.5,60.5,400.9,72z"/>
							<path id="Path_20_1_" class="st6" d="M400.9,72c0,0,9.6,5.1,17.8-10.7C418.6,61.3,404.8,60.6,400.9,72z"/>
						</g>
						<g id="Group_10_1_" transform="translate(9.522 80.987)">
							<path id="Path_21_1_" class="st6" d="M400.6,72.2c0,0-10.7-1.9-7.4-19.4C393.2,52.8,404.5,60.8,400.6,72.2z"/>
							<path id="Path_22_1_" class="st6" d="M400.6,72.2c0,0,9.5,5.3,18-10.3C418.6,61.9,404.8,60.9,400.6,72.2z"/>
						</g>
						<g id="Group_11_1_" transform="translate(0 99.698)">
							<path id="Path_23_1_" class="st6" d="M399.8,72.6c0,0-10.6-2.5-6.3-19.8C393.6,52.8,404.4,61.4,399.8,72.6z"/>
							<path id="Path_24_1_" class="st6" d="M399.8,72.6c0,0,9.2,5.8,18.6-9.2C418.4,63.3,404.7,61.5,399.8,72.6z"/>
						</g>
					</g>
				</g>
				<g id="Group_20_1_" transform="translate(20.821 244.502)">
					<path id="Path_25_1_" class="st6" d="M442.6,169c0,0-27.7-3.1-22.9-27.1s-16.1-24.5-25.3-34s18-12,18-32.8s9.7-27.5,19.5-18.1
						s-0.5,29.8,10.7,35.2s17.4,21.2,12.5,32.7s5.6,27.9,0.9,37.2S442.6,169,442.6,169z"/>
					<g id="Group_14_1_" transform="translate(49.371 115.324)">
						
							<rect id="Rectangle_1_1_" x="393.8" y="52.8" transform="matrix(0.993 -0.1181 0.1181 0.993 -4.7453 47.0553)" class="st6" width="1.5" height="21.4"/>
					</g>
					<g id="Group_15_1_" transform="translate(29.919 19.195)">
						<path id="Path_26_1_" class="st7" d="M412,149.8c-3.8-32.3-19.3-96-19.5-96.7l1.4-0.3c0.2,0.6,15.6,64.4,19.5,96.8L412,149.8z
							"/>
					</g>
					<g id="Group_16_1_" transform="translate(15.828 49.572)">
						<path id="Path_27_1_" class="st7" d="M408.3,60.4c-0.2,0-0.4-0.1-0.6-0.3c-3.8-3.9-9.1-6-14.5-5.8c-0.4,0-0.7-0.3-0.7-0.7
							c0-0.4,0.3-0.7,0.7-0.7c0,0,0,0,0,0c10.2,0,15.4,6.1,15.6,6.3c0.3,0.3,0.2,0.8-0.1,1C408.7,60.3,408.5,60.4,408.3,60.4
							L408.3,60.4z"/>
					</g>
					<g id="Group_17_1_" transform="translate(47.558 51.033)">
						<path id="Path_28_1_" class="st7" d="M393.2,70.5c-0.3,0-0.6-0.3-0.6-0.6c0-0.4-0.5-10.2,6-16.9c0.2-0.3,0.6-0.3,0.9-0.1
							c0.3,0.2,0.3,0.6,0,0.9c0,0,0,0,0,0c-6.1,6.2-5.7,15.8-5.6,15.9C393.8,70.2,393.5,70.5,393.2,70.5
							C393.2,70.5,393.2,70.5,393.2,70.5L393.2,70.5z"/>
					</g>
					<g id="Group_18_1_" transform="translate(32.375 80.826)">
						<path id="Path_29_1_" class="st7" d="M401.1,60c-0.2,0-0.4-0.1-0.5-0.3c-1.7-2.9-4.5-5-7.7-5.8c-0.3-0.1-0.5-0.4-0.4-0.6
							c0.1-0.3,0.4-0.5,0.6-0.4l0,0c3.5,0.9,6.6,3.2,8.4,6.4c0.1,0.3,0,0.6-0.2,0.7l0,0C401.3,60,401.2,60,401.1,60z"/>
					</g>
					<g id="Group_19_1_" transform="translate(52.111 89.34)">
						<path id="Path_30_1_" class="st7" d="M393.3,65.7C393.2,65.7,393.2,65.7,393.3,65.7c-0.5-0.1-0.8-0.4-0.7-0.8
							c0-0.2,0.7-5.5,9.8-11.9c0.3-0.2,0.8-0.2,1,0.2s0.2,0.8-0.2,1c-8.5,6-9.2,10.9-9.2,10.9C393.9,65.4,393.6,65.7,393.3,65.7z"/>
					</g>
				</g>
			</g>
		</g>
		<g>
			<path id="Rectangle_2_1_" class="st8" d="M790.4,516.8V274.4c0-13.7,11.1-24.9,24.9-24.9l0,0h355.4c13.7,0,24.9,11.1,24.9,24.9v0
				v242.3c0,13.7-11.1,24.9-24.9,24.9h0H815.3C801.6,541.6,790.4,530.5,790.4,516.8z"/>
			
				<linearGradient id="Rectangle_3-4_2_" gradientUnits="userSpaceOnUse" x1="0.2128" y1="766.9146" x2="0.8435" y2="768.2294" gradientTransform="matrix(384.212 0 0 -258.596 803.673 198867.5312)">
				<stop  offset="0" style="stop-color:#F3F7FF"/>
				<stop  offset="1" style="stop-color:#CDD9FF"/>
			</linearGradient>
			<path id="Rectangle_3-4_1_" class="st9" d="M811,266.3h363.9c5.6,0,10.1,4.5,10.1,10.1v238.3c0,5.6-4.5,10.1-10.1,10.1H811
				c-5.6,0-10.1-4.5-10.1-10.1V276.5C800.9,270.8,805.4,266.3,811,266.3z"/>
			<g transform="matrix(1, 0, 0, 1, -643, -249.08)">
				<path id="Rectangle_4-4_1_" class="st0" d="M1550.8,563h170.3c12,0,21.8,9.7,21.8,21.8l0,0V774l0,0h-213.8l0,0V584.7
					C1529.1,572.7,1538.8,563,1550.8,563L1550.8,563z"/>
			</g>
			<path id="Rectangle_5-2_1_" class="st7" d="M811.2,266.3h363.6c5.7,0,10.3,4.6,10.3,10.3v15H800.9v-15
				C800.9,270.9,805.5,266.3,811.2,266.3z"/>
			<g id="Group_22_1_" transform="translate(183.85 25.623)">
				<circle id="Ellipse_1_1_" class="st10" cx="643.9" cy="253.3" r="3.7"/>
				<circle id="Ellipse_2_1_" class="st11" cx="657.8" cy="253.3" r="3.7"/>
				<circle id="Ellipse_3_1_" class="st12" cx="671.6" cy="253.3" r="3.7"/>
			</g>
			<circle id="Ellipse_4_1_" class="st13" cx="993" cy="350" r="23.1"/>
			<circle id="Ellipse_5_1_" class="st0" cx="993" cy="342.4" r="5.6"/>
			<path id="Path_31_1_" class="st0" d="M1006.9,363.7c-7.6,7.7-19.9,7.7-27.6,0.2c-0.1-0.1-0.1-0.1-0.2-0.2
				c2.4-6.9,7.7-11.7,13.9-11.7S1004.4,356.8,1006.9,363.7z"/>
			<path id="Rectangle_6_1_" class="st14" d="M920.5,388.5h144.9c4.8,0,8.7,3.9,8.7,8.7v0.9c0,4.8-3.9,8.7-8.7,8.7H920.5
				c-4.8,0-8.7-3.9-8.7-8.7v-0.9C911.8,392.3,915.7,388.5,920.5,388.5z"/>
			<path id="Rectangle_7_1_" class="st14" d="M920.5,416.1h144.9c4.8,0,8.7,3.9,8.7,8.7v0.9c0,4.8-3.9,8.7-8.7,8.7H920.5
				c-4.8,0-8.7-3.9-8.7-8.7v-0.9C911.8,420,915.7,416.1,920.5,416.1z"/>
			<path id="Rectangle_8_1_" class="st14" d="M931.2,446.8h56.9c2.7,0,4.9,2.2,4.9,4.9v0c0,2.7-2.2,4.9-4.9,4.9h-56.9
				c-2.7,0-4.9-2.2-4.9-4.9v0C926.4,449,928.5,446.8,931.2,446.8z"/>
			<path id="Rectangle_9_1_" class="st10" d="M1011.7,446.8h56.9c2.7,0,4.9,2.2,4.9,4.9v0c0,2.7-2.2,4.9-4.9,4.9h-56.9
				c-2.7,0-4.9-2.2-4.9-4.9v0C1006.8,449,1009,446.8,1011.7,446.8z"/>
			<path id="Rectangle_10_1_" class="st14" d="M916.8,446.8L916.8,446.8c2.7,0,4.9,2.2,4.9,4.9v0c0,2.7-2.2,4.9-4.9,4.9h0
				c-2.7,0-4.9-2.2-4.9-4.9v0C911.9,449,914.1,446.8,916.8,446.8z"/>
		</g>
		<g transform="matrix(1, 0, 0, 1, -643, -249.08)">
			
				<linearGradient id="Rectangle_11-2_2_" gradientUnits="userSpaceOnUse" x1="643.9053" y1="1015.1285" x2="643.0023" y2="1017.9675" gradientTransform="matrix(58.927 0 0 -18.264 -36280.7383 19298.623)">
				<stop  offset="0" style="stop-color:#D0FFAE"/>
				<stop  offset="1" style="stop-color:#34EBE9"/>
			</linearGradient>
			<path id="Rectangle_11-2_1_" class="st15" d="M1615.6,723.2h40.7c5,0,9.1,4.1,9.1,9.1l0,0c0,5-4.1,9.1-9.1,9.1h-40.7
				c-5,0-9.1-4.1-9.1-9.1l0,0C1606.5,727.3,1610.6,723.2,1615.6,723.2z"/>
		</g>
		
			<linearGradient id="Path_32_2_" gradientUnits="userSpaceOnUse" x1="0.4959" y1="768.4364" x2="0.4959" y2="766.6254" gradientTransform="matrix(683.9996 0 0 -65.9037 642.9998 51155.1289)">
			<stop  offset="0" style="stop-color:#CDD9FF"/>
			<stop  offset="1" style="stop-color:#F3F7FF;stop-opacity:0"/>
		</linearGradient>
		<path id="Path_32_1_" class="st16" d="M643.3,541.6h677.8c3.2,0,4.3,3.5,1.5,4.8c-53.4,23.9-314.1,124.6-680.5,0.1
			C639,545.4,639.9,541.6,643.3,541.6z"/>
		<g id="Man_2_1_" transform="translate(785.76 250.239)">
			<g id="Leg_1_" transform="translate(8.257 119.171)">
				<path id="Path_33_1_" class="st17" d="M454.4,163.6l6.5-4.3l1.6,3l-7.1,3.4L454.4,163.6z"/>
				
					<linearGradient id="Path_35_2_" gradientUnits="userSpaceOnUse" x1="-793.5732" y1="398.3474" x2="-793.5292" y2="396.9994" gradientTransform="matrix(50.8318 0 0 -109.771 40756.6914 43805.957)">
					<stop  offset="0" style="stop-color:#7C203A"/>
					<stop  offset="1" style="stop-color:#F85959"/>
				</linearGradient>
				<path id="Path_35_1_" class="st18" d="M409.7,52.8L393.5,98c-1.8,5.1-1.1,10.7,1.8,15.2l32.4,49.4l4.9-2.6L422,117.3
					c-1.7-7-0.9-14.3,2.5-20.7l18.9-36.1L409.7,52.8z"/>
				
					<linearGradient id="Path_37_2_" gradientUnits="userSpaceOnUse" x1="-792.5554" y1="398.4891" x2="-795.0124" y2="397.5881" gradientTransform="matrix(33.25 0 0 -106.697 26831.5098 42584.7734)">
					<stop  offset="0" style="stop-color:#7C203A"/>
					<stop  offset="1" style="stop-color:#F85959"/>
				</linearGradient>
				<path id="Path_37_1_" class="st19" d="M459.8,56.9h-32.1l0.5,35.2c0.2,11.2,2.7,22.2,7.6,32.3l18.7,39.2l6.5-4.3
					c0,0-6.4-19.8-5-39.3S460.2,69.6,459.8,56.9z"/>
				<path id="Path_44_1_" class="st17" d="M427.8,162.6l4.9-2.6l1.2,2.6l-4.9,2.3L427.8,162.6z"/>
				
					<linearGradient id="Path_45_2_" gradientUnits="userSpaceOnUse" x1="-793.4936" y1="397.3584" x2="-793.8995" y2="398.9794" gradientTransform="matrix(24.1356 0 0 -10.5596 19579.8242 4370.1494)">
					<stop  offset="0" style="stop-color:#7C203A"/>
					<stop  offset="1" style="stop-color:#F85959"/>
				</linearGradient>
				<path id="Path_45_1_" class="st20" d="M427.8,162.6c0,0-0.7-0.5-2.5,0.4c-4.1,2.4-8.1,4.9-11.9,7.7c-0.4,0.2-0.5,0.7-0.2,1.1
					c0.1,0.2,0.3,0.3,0.6,0.4c0.4,0.1,12.2,0.1,19.3,0c2.3,0,4.1-1.9,4.1-4.1c0-0.4-0.1-0.7-0.2-1.1l-1.2-4.3c-0.2-0.8-1-1.2-1.8-1
					c0,0-0.1,0-0.1,0l0,0c0,0-2.1,2.2-4,2.3S427.8,162.6,427.8,162.6z"/>
				
					<linearGradient id="Path_46_2_" gradientUnits="userSpaceOnUse" x1="-793.0139" y1="397.7007" x2="-793.9598" y2="398.1837" gradientTransform="matrix(21.2985 0 0 -18.3664 17358.9531 7480.1016)">
					<stop  offset="0" style="stop-color:#7C203A"/>
					<stop  offset="1" style="stop-color:#F85959"/>
				</linearGradient>
				<path id="Path_46_1_" class="st21" d="M457.5,164.5c-1,0.3-2,0.2-2.9-0.4c0,0-0.8-0.2-2.2,1.3c-2.7,3.7-5.2,7.6-7.5,11.6
					c-0.4,1,0.4,1.3,0.9,1.3c0.4-0.1,11.2-4.7,17.8-7.6c2.1-0.9,3-3.3,2.1-5.4c-0.1-0.3-0.3-0.7-0.6-1l-1.8-3.3
					c-0.2-0.3-0.4-0.7-0.7-0.9l0,0c-0.5-0.3-1.1-0.2-1.4,0.3c0,0.1-0.1,0.1-0.1,0.2C460.6,161.6,459.3,164,457.5,164.5z"/>
			</g>
			<g id="Head_1_" transform="translate(40.136)">
				<path id="Path_34_1_" class="st17" d="M413.7,96.4l2.8-6.6l7.2-8.1c0,0,0-7.7-4.4-9.9s-15.5-3.4-15.5-3.4s-5.9,10.8-7.1,14.3
					s3.5,5.7,3.5,5.7l-2.3,4.2c0,0-11.5,8.1-0.5,10.5s14.6-1.6,14.6-1.6L413.7,96.4z"/>
				<path id="Path_36_1_" class="st22" d="M400.1,88.3l-2.3,4.2c-1.1,0.8-2.1,1.6-3,2.6c2,3.3,4.3,6.6,4.3,6.6s-1.2-6.2,0.6-7
					s3,0.2,3-1.5s0.8-1.4,3.5-1.3s3.8-2.8,3.8-2.8C406.7,90.1,403.1,89.8,400.1,88.3z"/>
				
					<linearGradient id="Path_42_2_" gradientUnits="userSpaceOnUse" x1="-825.3881" y1="517.0065" x2="-825.6752" y2="517.9395" gradientTransform="matrix(28.8698 0 0 -36.9605 24245.8613 19189.0293)">
					<stop  offset="0" style="stop-color:#7C203A"/>
					<stop  offset="1" style="stop-color:#F85959"/>
				</linearGradient>
				<path id="Path_42_1_" class="st23" d="M416.5,89.8l2.2-5.2c0,0,5.1-2.6,3-5s-5.3-0.3-4.8,1.7c-1.6-0.9-2.8-2.5-3.2-4.3
					c-0.5-1.7,0-3.5,1.3-4.6c0,0-8.5-1.2-12.4-4.9c-3.9-3.7-3.3-12.8-1.8-14.2s2.7,1.6,3.9,4.1s11.5,3.3,16.6,4.9s5.5,6.1,3.9,8.4
					c0,0,4.4,0.9,3,7s-7.1,9.4-9.3,10.5S416.5,89.8,416.5,89.8z"/>
			</g>
			<g id="Body_1_" transform="translate(0 29.774)">
				
					<linearGradient id="Path_38_2_" gradientUnits="userSpaceOnUse" x1="-784.9528" y1="486.9298" x2="-785.6098" y2="487.9018" gradientTransform="matrix(72.4244 0 0 -97.0737 57314.9883 47423.0352)">
					<stop  offset="0" style="stop-color:#F5564E"/>
					<stop  offset="1" style="stop-color:#FB9A40"/>
				</linearGradient>
				<path id="Path_38_1_" class="st24" d="M409.6,74.2l10.4,5.6c3.3,1.8,5.1,5.4,4.5,9l-4,27.9l-13-3.7l-3.5,7.3l13.9,7.3l-3,10.7
					c-0.7,2.6,0.8,5.4,3.4,6.2c9.4,3,31.2,8.5,48.4,3.1c2.1-0.7,3.6-2.6,3.6-4.9v-6.9c0,0,4.2-3.4,5.5-16.9c0.6-7.6,0.7-15.3,0.5-23
					c-0.2-8.6-4.4-16.6-11.4-21.6l-11.2-7.8c0,0-2.6,5-9.8,4.4s-6.1-8.3-6.1-8.3l-28.3-10V74.2z"/>
				
					<linearGradient id="Path_39_2_" gradientUnits="userSpaceOnUse" x1="-784.4879" y1="485.5131" x2="-785.3899" y2="487.5411" gradientTransform="matrix(32.6843 0 0 -26.5785 26105.3242 13063.5156)">
					<stop  offset="0" style="stop-color:#7C203A"/>
					<stop  offset="1" style="stop-color:#7C203A;stop-opacity:0"/>
				</linearGradient>
				<path id="Path_39_1_" class="st25" d="M450.2,94.1l2.9,21.3c0.3,2.5-1.4,4.9-4,5.2c-0.4,0.1-0.9,0.1-1.3,0l-27.4-4
					c0,0,5-7.2,11.2-3.5s7.1,1,8.5-2.5s6.5-0.8,6.4-6.8S448.7,100,450.2,94.1z"/>
				
					<linearGradient id="Path_40_2_" gradientUnits="userSpaceOnUse" x1="-784.9769" y1="489.1356" x2="-785.5109" y2="486.6956" gradientTransform="matrix(52.407 0 0 -22.3383 41600.1133 11027.8604)">
					<stop  offset="0" style="stop-color:#7C203A"/>
					<stop  offset="1" style="stop-color:#7C203A;stop-opacity:0"/>
				</linearGradient>
				<path id="Path_40_1_" class="st26" d="M417.9,127.6c5.8,4.2,3.5,2.5,8.3,7.2s13,1.3,14,6.1s8.5,2.8,10.1,6.2
					c0.5,1-0.2,2-1.3,2.9c6,0.2,12-0.6,17.7-2.2c2.1-0.7,3.6-2.6,3.6-4.9v-6.9l0,0c-6.1,4-13.8,4.9-20.7,2.6L417.9,127.6z"/>
				
					<linearGradient id="Path_41_2_" gradientUnits="userSpaceOnUse" x1="-789.9923" y1="486.9302" x2="-784.5994" y2="487.6712" gradientTransform="matrix(7.991 0 0 -21.316 6691.4502 10454.2686)">
					<stop  offset="0" style="stop-color:#7C203A"/>
					<stop  offset="1" style="stop-color:#7C203A;stop-opacity:0"/>
				</linearGradient>
				<path id="Path_41_1_" class="st27" d="M409.6,52.8v21.3l8-18.5L409.6,52.8z"/>
				<path id="Path_43_1_" class="st17" d="M404,120.3c-2.1-1.4-4.3-2.6-6.5-3.7c-4.4-2.2-6.6-6-3.5-6.3s8.4,1.6,9,1.4
					s-1.5-2.9,0.5-3.2s2,3.9,4.1,4.5L404,120.3z"/>
			</g>
		</g>
		<g id="Man_1_1_" transform="translate(343.933 234.441)">
			<g id="Legs_1_" transform="translate(6.505 113.278)">
				<rect id="Rectangle_12_1_" x="428.2" y="183.3" class="st28" width="6" height="4.3"/>
				
					<linearGradient id="Path_50_2_" gradientUnits="userSpaceOnUse" x1="-350.3822" y1="419.9565" x2="-348.2622" y2="419.2275" gradientTransform="matrix(31.8871 0 0 -125.779 11592.6816 52920.3711)">
					<stop  offset="0" style="stop-color:#163A5F"/>
					<stop  offset="1" style="stop-color:#21ABA5"/>
				</linearGradient>
				<path id="Path_50_1_" class="st29" d="M417.1,100.1c0,0,9.6,49.5,11.1,84.1h6c0,0,19.5-56.4,10.9-125.8l-29.7,2L417.1,100.1z"/>
				
					<linearGradient id="Path_51_2_" gradientUnits="userSpaceOnUse" x1="-350.8687" y1="419.9621" x2="-348.5647" y2="419.5041" gradientTransform="matrix(35.7015 0 0 -131.2746 12906.5137 55224.5547)">
					<stop  offset="0" style="stop-color:#163A5F"/>
					<stop  offset="1" style="stop-color:#21ABA5"/>
				</linearGradient>
				<path id="Path_51_1_" class="st30" d="M392.5,60.8c0,0,4.1,70.7,5.1,122.5c1.9,1.1,4.3,1.1,6.2,0c0,0,14.6-49.2,20.6-86.3
					s3.3-44.1,3.3-44.1L392.5,60.8z"/>
				<g id="Group_25_1_" transform="translate(3.031 8.639)">
					<g id="Group_23_1_" transform="translate(3.73)">
						<rect id="Rectangle_13_1_" x="392.5" y="52.8" class="st7" width="0.6" height="1.7"/>
					</g>
					<g id="Group_24_1_" transform="translate(0 5.054)">
						<path id="Path_52_1_" class="st7" d="M396.3,52.8v3.4h0.6v-3.4H396.3z M396.2,59.6c0,1.1-0.2,2.2-0.5,3.3l0.5,0.2
							c0.3-1.1,0.5-2.2,0.5-3.4L396.2,59.6z M394.5,65.8c-0.5,1-1.2,1.9-1.9,2.7l0.4,0.4c0.8-0.8,1.5-1.8,2-2.8L394.5,65.8z"/>
					</g>
				</g>
				<g id="Group_29_1_" transform="translate(7.048 8.626)">
					<g id="Group_26_1_" transform="translate(10.366)">
						<path id="Path_53_1_" class="st7" d="M393.1,56.2l-0.6,0c0.1-2.2,0.2-3.4,0.2-3.4l0.6,0C393.2,52.9,393.2,54.1,393.1,56.2z"/>
					</g>
					<g id="Group_27_1_" transform="translate(1.626 10.164)">
						<path id="Path_54_1_" class="st7" d="M393.1,154.6l-0.6-0.1c0.3-2.1,0.6-4.4,0.9-6.7l0.6,0.1
							C393.7,150.2,393.4,152.5,393.1,154.6z M394.8,141.1l-0.6-0.1c0.3-2.2,0.5-4.5,0.7-6.8l0.6,0.1
							C395.3,136.6,395.1,138.9,394.8,141.1L394.8,141.1z M396.2,127.6l-0.6-0.1c0.2-2.2,0.4-4.5,0.6-6.8l0.6,0.1
							C396.7,123.1,396.4,125.3,396.2,127.6L396.2,127.6z M397.5,114l-0.6,0c0.2-2.3,0.4-4.5,0.6-6.8l0.6,0
							C397.8,109.5,397.6,111.7,397.5,114L397.5,114z M398.5,100.4l-0.6,0c0.2-2.3,0.3-4.5,0.5-6.8l0.6,0
							C398.9,95.9,398.7,98.1,398.5,100.4L398.5,100.4z M399.5,86.8l-0.6,0c0.2-2.3,0.3-4.6,0.4-6.8l0.6,0
							C399.8,82.3,399.6,84.5,399.5,86.8L399.5,86.8z M400.4,73.3l-0.6,0c0.1-2.4,0.3-4.6,0.4-6.8l0.6,0
							C400.6,68.6,400.5,70.9,400.4,73.3L400.4,73.3z M401.1,59.7l-0.6,0c0.1-2.5,0.3-4.8,0.4-6.8l0.6,0
							C401.4,54.9,401.3,57.2,401.1,59.7L401.1,59.7z"/>
					</g>
					<g id="Group_28_1_" transform="translate(0 118.479)">
						<path id="Path_55_1_" class="st7" d="M393.1,56.2h-0.6c0.2-1.1,0.4-2.2,0.6-3.4l0.6,0.1C393.5,54.1,393.3,55.1,393.1,56.2z"/>
					</g>
				</g>
				<rect id="Rectangle_14_1_" x="397.6" y="183.3" class="st28" width="6.2" height="4.3"/>
				
					<linearGradient id="Path_62_2_" gradientUnits="userSpaceOnUse" x1="-350.0699" y1="418.661" x2="-350.0699" y2="420.081" gradientTransform="matrix(21.2798 0 0 -9.1244 7856.2671 4019.0593)">
					<stop  offset="0" style="stop-color:#163A5F"/>
					<stop  offset="1" style="stop-color:#21ABA5"/>
				</linearGradient>
				<path id="Path_62_1_" class="st31" d="M403.8,185c0.5-0.3,1.2-0.3,1.8,0c1.2,0.5,7.6,5.9,9.9,6.7s2,2.2,2,2.2h-19.7
					c-0.9,0-1.5-0.7-1.5-1.5l0,0v-5.5c0-0.8,0.6-1.4,1.4-1.4l0,0C397.6,185.4,401.7,188.8,403.8,185z"/>
				
					<linearGradient id="Path_63_2_" gradientUnits="userSpaceOnUse" x1="-350.3895" y1="418.6259" x2="-349.8645" y2="420.2869" gradientTransform="matrix(21.2799 0 0 -9.1243 7886.9331 4019.0081)">
					<stop  offset="0" style="stop-color:#163A5F"/>
					<stop  offset="1" style="stop-color:#21ABA5"/>
				</linearGradient>
				<path id="Path_63_1_" class="st32" d="M434.4,185c0.5-0.3,1.2-0.3,1.8,0c1.2,0.5,7.6,5.9,9.9,6.7s2,2.2,2,2.2h-19.7
					c-0.9,0-1.5-0.7-1.5-1.5l0,0v-5.5c0-0.8,0.6-1.4,1.4-1.4l0,0C428.2,185.4,432.3,188.8,434.4,185z"/>
			</g>
			<g id="Head-2_1_" transform="translate(17.729)">
				<path id="Path_48_1_" class="st28" d="M400.3,81v-3.2l-1.3-4.1l-4.1-4.3c0,0-0.6-5,1.9-6.9c2.5-2,15.6-1.9,15.6-1.9l4,2.7
					c0,0,0.1,11.3,0,13.8s-2.8,3-2.8,3v5.5c0,0,0.9,7.6-2.3,7.4s-9.8-7.7-9.8-7.7L400.3,81z"/>
				<path id="Path_49_1_" class="st33" d="M406.7,78.7c-3-1.6-3.2-2.8-3.2-2.8s-0.2,4,1.9,4.6s3.6,1.4,3,2.6s4.3,2.1,2.5,6.3
					c-0.8,2,0.7,1.9,2.5,1.2c0.3-1.7,0.4-3.5,0.2-5.2v-5.5C411.2,80.1,408.8,79.7,406.7,78.7z"/>
				
					<linearGradient id="Path_60_2_" gradientUnits="userSpaceOnUse" x1="-361.5049" y1="532.761" x2="-361.1538" y2="533.506" gradientTransform="matrix(27.6008 0 0 -24.9599 10377.5 13369.8965)">
					<stop  offset="0" style="stop-color:#163A5F"/>
					<stop  offset="1" style="stop-color:#21ABA5"/>
				</linearGradient>
				<path id="Path_60_1_" class="st34" d="M400.3,77.8v-5c0,0-4.6-0.5-3.7-3.7s3.4-1.3,4.9,0c0.4,0.4,1,0.7,1.6,0.8
					c0.4,0,0.7-0.3,0.8-0.7c0-0.1,0-0.2,0-0.3c-0.5-1.5-1.6-4.7-1.2-5.6c0.5-1.2,3.9,1.5,9.4,1c5.5-0.5,9-3.8,7.9-8.1s-3.9-1.1-9-1
					s-9.2-4.5-14.2-1.3s-4.8,12.1-3.1,15.9S397.9,73.2,400.3,77.8z"/>
			</g>
			<g id="Tab_1_" transform="translate(60.366 58.54)">
				<path id="Path_64_1_" class="st35" d="M392.6,89.6l7.3-31.3c0.1-0.3,0.3-0.5,0.5-0.6l13.4-4.8c0.5-0.2,1,0.1,1.1,0.5
					c0.1,0.2,0.1,0.3,0,0.5l-7.1,30.8c-0.1,0.3-0.3,0.5-0.5,0.6l-13.5,5.2c-0.4,0.2-1,0-1.2-0.5C392.5,90,392.5,89.8,392.6,89.6z"/>
				
					<ellipse id="Ellipse_6_1_" transform="matrix(0.1913 -0.9815 0.9815 0.1913 258.1684 454.7152)" class="st7" cx="405" cy="70.7" rx="3" ry="1.3"/>
			</g>
			<g id="Body-2_1_" transform="translate(0 28.171)">
				
					<linearGradient id="Path_47_2_" gradientUnits="userSpaceOnUse" x1="-344.4995" y1="504.6065" x2="-344.2306" y2="505.1185" gradientTransform="matrix(3.313 0 0 -7.386 1596.1747 3833.584)">
					<stop  offset="0" style="stop-color:#FFA06F"/>
					<stop  offset="1" style="stop-color:#FFD6A0"/>
				</linearGradient>
				<path id="Path_47_1_" class="st36" d="M454.7,103.2c0.7,0.1,1.4-0.2,1.7-0.8c0.5-1,0.8-1.1,0.8-1.1l-1.7,7.4l-1.3-0.4
					C453.7,106.6,453.9,104.8,454.7,103.2z"/>
				
					<linearGradient id="Path_56_2_" gradientUnits="userSpaceOnUse" x1="-344.067" y1="504.4516" x2="-342.984" y2="505.1696" gradientTransform="matrix(62.1931 0 0 -96.9235 21785.6094 49036.3008)">
					<stop  offset="0" style="stop-color:#45EBA5"/>
					<stop  offset="1" style="stop-color:#C5F0A4"/>
				</linearGradient>
				<path id="Path_56_1_" class="st37" d="M418,52.8l-12.8,5.9c-6.4,3-10.7,9.3-11,16.4l-1.6,37.1c-0.2,4.6,3.4,8.6,8.1,8.8
					c0.3,0,0.5,0,0.8,0l0,0l-3.6,22.9c-0.3,1.9,1,3.7,2.9,4c8.9,1.6,33.4,4.8,51-4.5c1.3-0.7,2.1-2.1,1.9-3.6
					c-0.7-5.4-3-18.4-3.6-24.1l1.4-0.3l-0.6-6.5l4-0.7v-5.1c-1.6-0.1-3.3-0.5-4.8-1.2l0.7-29.1c0.3-7.5-4.6-14.2-11.9-16.2l-7.5-2.3
					l-2.7,6.9L418,52.8z"/>
				
					<linearGradient id="Path_57_2_" gradientUnits="userSpaceOnUse" x1="-344.5233" y1="504.8159" x2="-343.5233" y2="504.8159" gradientTransform="matrix(4.757 0 0 -6.961 2088.8574 3619.4832)">
					<stop  offset="0" style="stop-color:#45EBA5"/>
					<stop  offset="1" style="stop-color:#C5F0A4"/>
				</linearGradient>
				<path id="Path_57_1_" class="st38" d="M454.7,103.2c-1.6-0.1-3.3-0.5-4.8-1.2c0,2.3,0.3,4.7,0.7,7l4-0.7V103.2z"/>
				
					<linearGradient id="Path_58_2_" gradientUnits="userSpaceOnUse" x1="-344.0204" y1="503.7761" x2="-343.4534" y2="504.9111" gradientTransform="matrix(38.7515 0 0 -29.69 13742.6758 15083.7197)">
					<stop  offset="0" style="stop-color:#21ABA5"/>
					<stop  offset="1" style="stop-color:#21ABA5;stop-opacity:0"/>
				</linearGradient>
				<path id="Path_58_1_" class="st39" d="M450.7,108.9l-34.8-1.3c-2.2-0.1-4-2-3.9-4.2c0-0.1,0-0.2,0-0.3l2.5-23.9
					c0,0,8.5,5.2,6.2,13.6s6.9,4.4,9.6,8.4s4.6,5,8.6,4.2S443,108.3,450.7,108.9z"/>
				
					<linearGradient id="Path_59_2_" gradientUnits="userSpaceOnUse" x1="-344.1465" y1="506.0076" x2="-343.4205" y2="504.7916" gradientTransform="matrix(52.1538 0 0 -32.099 18337.957 16337.6748)">
					<stop  offset="0" style="stop-color:#21ABA5"/>
					<stop  offset="1" style="stop-color:#21ABA5;stop-opacity:0"/>
				</linearGradient>
				<path id="Path_59_1_" class="st40" d="M397.8,143.9c-0.3,1.7,0.8,3.4,2.5,3.9c1-3.8,3.9-2,3.2-5.1c-0.8-3.6,1.6-5.6,10.1-7.4
					s0.7-8.4,10-11.1s26.3-8.5,26.3-8.5l-48.5,5.3L397.8,143.9z"/>
				<path id="Path_61_1_" class="st0" d="M411.1,56l13.6,10.8c2.6,2.1,6.3,1.6,8.4-0.9c0.4-0.5,0.7-1,0.9-1.6l3.2-8.2l-5.9-1.8
					l-2.7,6.9L418,52.8L411.1,56z"/>
				<path id="Path_65_1_" class="st28" d="M458.6,114.3c-1.5,0.4-3,0.6-4.5,0.7c-1,0.1-1.9,0-2.9-0.3l-0.5-5.8
					c1.1-0.2,2.2-0.5,3.3-1.1c0.5-0.3,1.2-0.4,1.8-0.2l-0.4,1.7c0,0,0,0.1,0,0.1c-0.1,0.3,0.1,0.5,0.6,0.6c0.8,0.2,3.7,0.5,5-0.6
					s2-1.4,2.5-0.5S463.7,113,458.6,114.3z"/>
				
					<linearGradient id="Path_66_2_" gradientUnits="userSpaceOnUse" x1="-345.8268" y1="504.452" x2="-345.6198" y2="504.942" gradientTransform="matrix(1.2591 0 0 -2.2495 890.3436 1243.9568)">
					<stop  offset="0" style="stop-color:#FFA06F"/>
					<stop  offset="1" style="stop-color:#FFA06F;stop-opacity:0"/>
				</linearGradient>
				<path id="Path_66_1_" class="st41" d="M455.4,109.8L455.4,109.8c0-0.1-0.1-0.2,0-0.3c0,0,0-0.1,0-0.1l0.4-1.7
					c-0.2-0.1-0.4-0.1-0.6-0.1c-0.2,0-0.4,0-0.4,0l0,0c-0.2,0.4-0.3,0.9-0.2,1.3c0,0.5,0.3,0.8,0.8,0.9
					C455.3,109.8,455.3,109.8,455.4,109.8z"/>
			</g>
		</g>
	</g>
</g>
</svg>
